<svg height="734" width="720" xmlns="http://www.w3.org/2000/svg">
<rect height="734" fill="#555" width="720"></rect>
<text fill="#7f7" font-family="Courier New" font-size="12" xml:space="preserve">
<tspan x="10" y="26">└─┬ express-favicon@2.0.0 </tspan>
<tspan x="10" y="42">  └─┬ express@4.15.2 </tspan>
<tspan x="10" y="58">    ├─┬ accepts@1.3.3 </tspan>
<tspan x="10" y="74">    │ ├─┬ mime-types@2.1.15 </tspan>
<tspan x="10" y="90">    │ │ └── mime-db@1.27.0 </tspan>
<tspan x="10" y="106">    │ └── negotiator@0.6.1 </tspan>
<tspan x="10" y="122">    ├── array-flatten@1.1.1 </tspan>
<tspan x="10" y="138">    ├── content-disposition@0.5.2 </tspan>
<tspan x="10" y="154">    ├── content-type@1.0.2 </tspan>
<tspan x="10" y="170">    ├── cookie@0.3.1 </tspan>
<tspan x="10" y="186">    ├── cookie-signature@1.0.6 </tspan>
<tspan x="10" y="202">    ├─┬ debug@2.6.1 </tspan>
<tspan x="10" y="218">    │ └── ms@0.7.2 </tspan>
<tspan x="10" y="234">    ├── depd@1.1.0 </tspan>
<tspan x="10" y="250">    ├── encodeurl@1.0.1 </tspan>
<tspan x="10" y="266">    ├── escape-html@1.0.3 </tspan>
<tspan x="10" y="282">    ├── etag@1.8.0 </tspan>
<tspan x="10" y="298">    ├─┬ finalhandler@1.0.1 </tspan>
<tspan x="10" y="314">    │ ├── debug@2.6.3 </tspan>
<tspan x="10" y="330">    │ └── unpipe@1.0.0 </tspan>
<tspan x="10" y="346">    ├── fresh@0.5.0 </tspan>
<tspan x="10" y="362">    ├── merge-descriptors@1.0.1 </tspan>
<tspan x="10" y="378">    ├── methods@1.1.2 </tspan>
<tspan x="10" y="394">    ├─┬ on-finished@2.3.0 </tspan>
<tspan x="10" y="410">    │ └── ee-first@1.1.1 </tspan>
<tspan x="10" y="426">    ├── parseurl@1.3.1 </tspan>
<tspan x="10" y="442">    ├── path-to-regexp@0.1.7 </tspan>
<tspan x="10" y="458">    ├─┬ proxy-addr@1.1.4 </tspan>
<tspan x="10" y="474">    │ ├── forwarded@0.1.0 </tspan>
<tspan x="10" y="490">    │ └── ipaddr.js@1.3.0 </tspan>
<tspan x="10" y="506">    ├── qs@6.4.0 </tspan>
<tspan x="10" y="522">    ├── range-parser@1.2.0 </tspan>
<tspan x="10" y="538">    ├─┬ send@0.15.1 </tspan>
<tspan x="10" y="554">    │ ├── destroy@1.0.4 </tspan>
<tspan x="10" y="570">    │ ├─┬ http-errors@1.6.1 </tspan>
<tspan x="10" y="586">    │ │ └── inherits@2.0.3 </tspan>
<tspan x="10" y="602">    │ └── mime@1.3.4 </tspan>
<tspan x="10" y="618">    ├── serve-static@1.12.1 </tspan>
<tspan x="10" y="634">    ├── setprototypeof@1.0.3 </tspan>
<tspan x="10" y="650">    ├── statuses@1.3.1 </tspan>
<tspan x="10" y="666">    ├─┬ type-is@1.6.15 </tspan>
<tspan x="10" y="682">    │ └── media-typer@0.3.0 </tspan>
<tspan x="10" y="698">    ├── utils-merge@1.0.0 </tspan>
<tspan x="10" y="714">    └── vary@1.1.1</tspan>
</text>
</svg>
